<svg preserveAspectRatio="none" width="100%" height="100%" overflow="visible" style="display: block;" viewBox="0 0 190 54.0517" fill="none" xmlns="http://www.w3.org/2000/svg">
<g id="signal-logo 5" clip-path="url(#clip0_0_4)">
<path id="Vector" d="M54.0309 9.18162L47.1411 21.327C46.8621 21.8117 45.6069 23.792 45.1745 24.1105C44.0309 25.4539 42.4549 26.3402 40.6975 26.6449C40.2791 26.7834 38.6334 26.8664 38.1731 26.8664H15.2442L0.000183105 53.7608H22.9151C24.2401 53.7469 29.0658 53.4838 30.2652 53.0129C35.0211 52.0573 39.2331 48.9137 41.6877 44.579L48.5776 32.4337C48.8566 31.9489 50.1118 29.9686 50.5441 29.6501C51.6878 28.3067 53.2777 27.4204 55.0351 27.1019C55.4535 26.9634 57.0853 26.8803 57.5455 26.8803H80.4744L95.7184 -0.00013314H72.8174C71.4925 0.0137156 66.6668 0.276842 65.4674 0.7477C60.6976 1.68942 56.4855 4.84693 54.0309 9.18162Z" fill="var(--fill-0, #F19749)"/>
<path id="Vector_2" d="M53.9451 48.7902L54.0845 48.7209C57.3202 49.9396 60.7512 50.4797 65.4931 50.4797C70.5699 50.4797 72.7316 49.6764 72.7316 48.4994C72.7316 45.051 53.8334 49.5934 53.8334 41.4503C53.8334 37.9327 57.7386 36.077 65.2142 36.077C68.952 36.077 72.383 36.534 75.549 37.4618V41.0764L75.4095 41.1179C72.1041 40.1485 68.7149 39.6361 65.3118 39.6361C60.4444 39.6361 58.3802 40.2316 58.3802 41.2979C58.3802 44.7463 77.2644 40.3424 77.2644 48.3747C77.2644 52.3077 73.7358 54.0388 65.2003 54.0388C60.8349 54.0388 56.86 53.5126 53.9032 52.5847V48.7902H53.9451Z" fill="var(--fill-0, #F19749)"/>
<path id="Vector_3" d="M84.9641 36.59V53.7763H80.4034V36.59H84.9641Z" fill="var(--fill-0, #F19749)"/>
<path id="Vector_4" d="M92.4008 45.1068C92.4008 48.4582 95.4965 50.4801 101.536 50.4801C103.363 50.4801 105.134 50.1893 106.836 49.6907V46.5748H96.5014V43.6249H111.383V51.7126C107.979 53.4438 104.953 54.0392 101.355 54.0392C92.8471 54.0392 87.84 50.7294 87.84 45.0653C87.84 39.401 92.8332 36.0912 101.103 36.0912C105.037 36.0912 108.3 36.8252 111.411 38.4178V42.2678L111.271 42.2955C108.245 40.6475 104.995 39.6503 101.536 39.6503C95.5669 39.678 92.4008 41.7 92.4008 45.1068Z" fill="var(--fill-0, #F19749)"/>
<path id="Vector_5" d="M139.483 36.59V53.7763H134.211L119.804 41.5617V53.7763H115.243V36.59H120.041L134.923 49.1646V36.59H139.483Z" fill="var(--fill-0, #F19749)"/>
<path id="Vector_6" d="M160.682 50.3137H148.451L146.289 53.762H141.393L152.426 36.5757H157.126L167.6 53.762H162.704L160.682 50.3137ZM158.618 46.8238L154.741 40.2318L150.612 46.8238H158.618Z" fill="var(--fill-0, #F19749)"/>
<path id="Vector_7" d="M190 50.2726V53.7763H169.764V36.59H174.324V50.2726H190Z" fill="var(--fill-0, #F19749)"/>
</g>
<defs>
<clipPath id="clip0_0_4">
<rect width="190" height="54.0517" fill="white"/>
</clipPath>
</defs>
</svg>
